<mxfile host="app.diagrams.net" modified="2022-07-22T10:18:34.133Z" agent="5.0 (Macintosh; Intel Mac OS X 10_15_7) AppleWebKit/537.36 (KHTML, like Gecko) Chrome/103.0.0.0 Safari/537.36" etag="KdLso-sm9iD6f5BX5t_H" version="20.1.4" type="github">
  <diagram id="Q5jlETRpC0nfuTU64_fI" name="Page-1">
    <mxGraphModel dx="946" dy="459" grid="1" gridSize="10" guides="1" tooltips="1" connect="1" arrows="1" fold="1" page="1" pageScale="1" pageWidth="827" pageHeight="1169" math="0" shadow="0">
      <root>
        <mxCell id="0" />
        <mxCell id="1" parent="0" />
        <mxCell id="jBFLoUk7NR8VaI19FAnz-3" style="edgeStyle=orthogonalEdgeStyle;rounded=0;orthogonalLoop=1;jettySize=auto;html=1;entryX=0.5;entryY=0;entryDx=0;entryDy=0;" parent="1" source="jBFLoUk7NR8VaI19FAnz-1" target="jBFLoUk7NR8VaI19FAnz-4" edge="1">
          <mxGeometry relative="1" as="geometry">
            <mxPoint x="380" y="130" as="targetPoint" />
          </mxGeometry>
        </mxCell>
        <mxCell id="jBFLoUk7NR8VaI19FAnz-1" value="DDMQ 轨迹流&lt;br&gt;bawanghua_driver" style="rounded=1;whiteSpace=wrap;html=1;arcSize=30;" parent="1" vertex="1">
          <mxGeometry x="320" y="40" width="120" height="40" as="geometry" />
        </mxCell>
        <mxCell id="jBFLoUk7NR8VaI19FAnz-11" style="edgeStyle=orthogonalEdgeStyle;rounded=0;orthogonalLoop=1;jettySize=auto;html=1;exitX=1;exitY=0.5;exitDx=0;exitDy=0;entryX=0.5;entryY=0;entryDx=0;entryDy=0;" parent="1" source="jBFLoUk7NR8VaI19FAnz-4" target="jBFLoUk7NR8VaI19FAnz-9" edge="1">
          <mxGeometry relative="1" as="geometry" />
        </mxCell>
        <mxCell id="jBFLoUk7NR8VaI19FAnz-12" style="edgeStyle=orthogonalEdgeStyle;rounded=0;orthogonalLoop=1;jettySize=auto;html=1;exitX=0;exitY=0.5;exitDx=0;exitDy=0;entryX=0.5;entryY=0;entryDx=0;entryDy=0;" parent="1" source="jBFLoUk7NR8VaI19FAnz-4" target="jBFLoUk7NR8VaI19FAnz-8" edge="1">
          <mxGeometry relative="1" as="geometry" />
        </mxCell>
        <mxCell id="jBFLoUk7NR8VaI19FAnz-4" value="Flink 轨迹流处理&lt;br&gt;停留&amp;amp;丢失事件识别" style="rounded=0;whiteSpace=wrap;html=1;" parent="1" vertex="1">
          <mxGeometry x="320" y="110" width="120" height="40" as="geometry" />
        </mxCell>
        <mxCell id="jBFLoUk7NR8VaI19FAnz-17" style="edgeStyle=orthogonalEdgeStyle;rounded=0;orthogonalLoop=1;jettySize=auto;html=1;entryX=0.5;entryY=0;entryDx=0;entryDy=0;" parent="1" source="jBFLoUk7NR8VaI19FAnz-8" target="jBFLoUk7NR8VaI19FAnz-13" edge="1">
          <mxGeometry relative="1" as="geometry" />
        </mxCell>
        <mxCell id="jBFLoUk7NR8VaI19FAnz-8" value="Kafka 花小猪&amp;amp;鸿鹄停留事件流&lt;br&gt;traffic_mining_stay_event_topic_kflower" style="shape=parallelogram;perimeter=parallelogramPerimeter;whiteSpace=wrap;html=1;fixedSize=1;" parent="1" vertex="1">
          <mxGeometry x="120" y="170" width="250" height="40" as="geometry" />
        </mxCell>
        <mxCell id="jBFLoUk7NR8VaI19FAnz-16" style="edgeStyle=orthogonalEdgeStyle;rounded=0;orthogonalLoop=1;jettySize=auto;html=1;entryX=0.5;entryY=0;entryDx=0;entryDy=0;" parent="1" source="jBFLoUk7NR8VaI19FAnz-9" target="jBFLoUk7NR8VaI19FAnz-14" edge="1">
          <mxGeometry relative="1" as="geometry" />
        </mxCell>
        <mxCell id="jBFLoUk7NR8VaI19FAnz-9" value="Kafka花小猪&amp;amp;鸿鹄丢失事件流&lt;br&gt;traffic_mining_lost_event_topic_kflower" style="shape=parallelogram;perimeter=parallelogramPerimeter;whiteSpace=wrap;html=1;fixedSize=1;" parent="1" vertex="1">
          <mxGeometry x="390" y="170" width="250" height="40" as="geometry" />
        </mxCell>
        <mxCell id="jBFLoUk7NR8VaI19FAnz-29" style="edgeStyle=orthogonalEdgeStyle;rounded=0;orthogonalLoop=1;jettySize=auto;html=1;entryX=0.5;entryY=0;entryDx=0;entryDy=0;" parent="1" source="jBFLoUk7NR8VaI19FAnz-13" target="jBFLoUk7NR8VaI19FAnz-26" edge="1">
          <mxGeometry relative="1" as="geometry" />
        </mxCell>
        <mxCell id="jBFLoUk7NR8VaI19FAnz-13" value="FlinkSQL 停留事件处理&lt;br&gt;筛选鸿鹄消息" style="rounded=0;whiteSpace=wrap;html=1;" parent="1" vertex="1">
          <mxGeometry x="150" y="240" width="190" height="40" as="geometry" />
        </mxCell>
        <mxCell id="jBFLoUk7NR8VaI19FAnz-28" style="edgeStyle=orthogonalEdgeStyle;rounded=0;orthogonalLoop=1;jettySize=auto;html=1;entryX=0.5;entryY=0;entryDx=0;entryDy=0;" parent="1" source="jBFLoUk7NR8VaI19FAnz-14" target="jBFLoUk7NR8VaI19FAnz-27" edge="1">
          <mxGeometry relative="1" as="geometry" />
        </mxCell>
        <mxCell id="jBFLoUk7NR8VaI19FAnz-14" value="FlinkSQL 丢失事件处理&lt;br&gt;筛选鸿鹄消息，长时间丢失限流" style="rounded=0;whiteSpace=wrap;html=1;" parent="1" vertex="1">
          <mxGeometry x="420" y="240" width="190" height="40" as="geometry" />
        </mxCell>
        <mxCell id="jBFLoUk7NR8VaI19FAnz-25" style="edgeStyle=orthogonalEdgeStyle;rounded=0;orthogonalLoop=1;jettySize=auto;html=1;entryX=0.5;entryY=0;entryDx=0;entryDy=0;" parent="1" source="jBFLoUk7NR8VaI19FAnz-18" target="jBFLoUk7NR8VaI19FAnz-22" edge="1">
          <mxGeometry relative="1" as="geometry" />
        </mxCell>
        <mxCell id="jBFLoUk7NR8VaI19FAnz-18" value="HOROSCOPE 异常停留判别" style="rounded=0;whiteSpace=wrap;html=1;" parent="1" vertex="1">
          <mxGeometry x="150" y="380" width="190" height="40" as="geometry" />
        </mxCell>
        <mxCell id="jBFLoUk7NR8VaI19FAnz-24" style="edgeStyle=orthogonalEdgeStyle;rounded=0;orthogonalLoop=1;jettySize=auto;html=1;" parent="1" source="jBFLoUk7NR8VaI19FAnz-19" target="jBFLoUk7NR8VaI19FAnz-23" edge="1">
          <mxGeometry relative="1" as="geometry" />
        </mxCell>
        <mxCell id="jBFLoUk7NR8VaI19FAnz-19" value="HOROSCOPE 异常丢失判别" style="rounded=0;whiteSpace=wrap;html=1;" parent="1" vertex="1">
          <mxGeometry x="420" y="380" width="190" height="40" as="geometry" />
        </mxCell>
        <mxCell id="jBFLoUk7NR8VaI19FAnz-22" value="Kafka 鸿鹄异常停留事件流&lt;br&gt;traffic_mining_stay_event_record_kflower_hh" style="rounded=1;whiteSpace=wrap;html=1;arcSize=30;" parent="1" vertex="1">
          <mxGeometry x="115" y="450" width="260" height="40" as="geometry" />
        </mxCell>
        <mxCell id="jBFLoUk7NR8VaI19FAnz-23" value="Kafka 鸿鹄异常丢失事件流&lt;br&gt;traffic_mining_lost_event_record_kflower_hh" style="rounded=1;whiteSpace=wrap;html=1;arcSize=30;" parent="1" vertex="1">
          <mxGeometry x="390" y="450" width="250" height="40" as="geometry" />
        </mxCell>
        <mxCell id="jBFLoUk7NR8VaI19FAnz-31" style="edgeStyle=orthogonalEdgeStyle;rounded=0;orthogonalLoop=1;jettySize=auto;html=1;entryX=0.5;entryY=0;entryDx=0;entryDy=0;" parent="1" source="jBFLoUk7NR8VaI19FAnz-26" target="jBFLoUk7NR8VaI19FAnz-18" edge="1">
          <mxGeometry relative="1" as="geometry" />
        </mxCell>
        <mxCell id="jBFLoUk7NR8VaI19FAnz-26" value="Kafka 鸿鹄停留事件流&lt;br&gt;traffic_mining_stay_event_topic_kflower_hh" style="shape=parallelogram;perimeter=parallelogramPerimeter;whiteSpace=wrap;html=1;fixedSize=1;" parent="1" vertex="1">
          <mxGeometry x="110" y="310" width="270" height="40" as="geometry" />
        </mxCell>
        <mxCell id="jBFLoUk7NR8VaI19FAnz-30" style="edgeStyle=orthogonalEdgeStyle;rounded=0;orthogonalLoop=1;jettySize=auto;html=1;entryX=0.5;entryY=0;entryDx=0;entryDy=0;" parent="1" source="jBFLoUk7NR8VaI19FAnz-27" target="jBFLoUk7NR8VaI19FAnz-19" edge="1">
          <mxGeometry relative="1" as="geometry" />
        </mxCell>
        <mxCell id="jBFLoUk7NR8VaI19FAnz-27" value="Kafka 鸿鹄丢失事件流&lt;br&gt;traffic_mining_lost_event_topic_kflower_hh" style="shape=parallelogram;perimeter=parallelogramPerimeter;whiteSpace=wrap;html=1;fixedSize=1;" parent="1" vertex="1">
          <mxGeometry x="380" y="310" width="270" height="40" as="geometry" />
        </mxCell>
      </root>
    </mxGraphModel>
  </diagram>
</mxfile>
